<svg version="1.1" viewBox="0.0 0.0 400.0 400.0" fill="none" stroke="none" stroke-linecap="square" stroke-miterlimit="10" xmlns="http://www.w3.org/2000/svg" xmlns:xlink="http://www.w3.org/1999/xlink"><clipPath id="p.0"><path d="m0 0l400.0 0l0 400.0l-400.0 0l0 -400.0z" clip-rule="nonzero"></path></clipPath><g clip-path="url(#p.0)"><path fill="#000000" fill-opacity="0.0" d="m0 0l400.0 0l0 400.0l-400.0 0z" fill-rule="nonzero"></path><path fill="#000000" fill-opacity="0.0" d="m17.874016 200.0l0 0c0 -100.5854 81.54058 -182.12598 182.12598 -182.12598l0 0c48.30281 0 94.62726 19.188217 128.7825 53.343468c34.155273 34.155243 53.343475 80.479706 53.343475 128.78252l0 0c0 100.58539 -81.54059 182.12598 -182.12598 182.12598l0 0c-100.5854 0 -182.12598 -81.54059 -182.12598 -182.12598z" fill-rule="nonzero"></path><path stroke="#eb5c62" stroke-width="24.0" stroke-linejoin="round" stroke-linecap="butt" d="m17.874016 200.0l0 0c0 -100.5854 81.54058 -182.12598 182.12598 -182.12598l0 0c48.30281 0 94.62726 19.188217 128.7825 53.343468c34.155273 34.155243 53.343475 80.479706 53.343475 128.78252l0 0c0 100.58539 -81.54059 182.12598 -182.12598 182.12598l0 0c-100.5854 0 -182.12598 -81.54059 -182.12598 -182.12598z" fill-rule="nonzero"></path></g></svg>

